# AST/ASF file generated using VICON BodyLanguage
# -----------------------------------------------
:version 1.10
:name VICON
:units
  mass 1.0
  length 0.45
  angle deg
:documentation
   .ast/.asf automatically generated from VICON data using
   VICON BodyBuilder and BodyLanguage model FoxedUp or BRILLIANT.MOD
:root
   order TX TY TZ RX RY RZ
   axis XYZ
   position 0 0 0  
   orientation 0 0 0 
:bonedata
  begin
     id 1 
     name lhipjoint
     direction 0.547975 -0.797114 0.253638 
     length 2.36201 
     axis 0 0 0  XYZ
  end
  begin
     id 2 
     name lfemur
     direction 0.34202 -0.939693 0  
     length 7.69075  
     axis 0 0 20  XYZ
    dof rx ry rz
    limits (-160.0 20.0)
           (-70.0 70.0)
           (-60.0 70.0)
  end
  begin
     id 3 
     name ltibia
     direction 0.34202 -0.939693 0   
     length 7.91399   
     axis 0 0 20   XYZ
    dof rx
    limits (-10.0 170.0)
  end
  begin
     id 4 
     name lfoot
     direction 0.0705293 -0.193778 0.978507   
     length 2.13618   
     axis -90 7.62852e-016 20   XYZ
    dof rx rz
    limits (-45.0 90.0)
           (-70.0 20.0)
  end
  begin
     id 5 
     name ltoes
     direction 1.53592e-011 -4.21925e-011 1   
     length 1.07518   
     axis -90 7.62852e-016 20   XYZ
    dof rx
    limits (-90.0 20.0)
  end
  begin
     id 6 
     name rhipjoint
     direction -0.57 -0.782963 0.249136   
     length 2.4047  
     axis 0 0 0  XYZ 
  end
  begin
     id 7 
     name rfemur
     direction -0.34202 -0.939693 0   
     length 7.51486   
     axis 0 0 -20   XYZ
    dof rx ry rz
    limits (-160.0 20.0)
           (-70.0 70.0)
           (-70.0 60.0)
  end
  begin
     id 8 
     name rtibia
     direction -0.34202 -0.939693 0   
     length 8.08317   
     axis 0 0 -20   XYZ
    dof rx
    limits (-10.0 170.0)
 end
 begin
     id 9 
     name rfoot
     direction -0.104954 -0.281256 0.953876   
     length 2.30343  
     axis -90 -7.62852e-016 -20   XYZ
    dof rx rz
    limits (-45.0 90.0)
           (-20.0 70.0)
  end
  begin
     id 10 
     name rtoes
     direction -1.53556e-011 -4.21922e-011 1   
     length 1.14803   
     axis -90 -7.62852e-016 -20   XYZ
    dof rx
    limits (-90.0 20.0)
  end
  begin
     id 11 
     name lowerback
     direction -0.0152855 0.99353 -0.11254   
     length 2.05311   
     axis 0 0 0   XYZ
    dof rx ry rz
    limits (-20.0 45.0)
           (-30.0 30.0)
           (-30.0 30.0)
  end
  begin
     id 12 
     name upperback
     direction -0.00157509 0.999443 -0.033332   
     length 2.06353   
     axis 0 0 0   XYZ
    dof rx ry rz
    limits (-20.0 45.0)
           (-30.0 30.0)
           (-30.0 30.0)
  end
  begin
     id 13 
     name thorax
     direction 0.00577788 0.999804 0.0189484   
     length 2.08472   
     axis 0 0 0   XYZ
    dof rx ry rz
    limits (-20.0 45.0)
           (-30.0 30.0)
           (-30.0 30.0)
  end
  begin
     id 14 
     name lowerneck
     direction -1.09301e-005 0.994719 0.10264   
     length 1.76249   
     axis 0 0 0   XYZ
    dof rx ry rz
    limits (-20.0 45.0)
           (-30.0 30.0)
           (-30.0 30.0)
  end
  begin
     id 15 
     name upperneck
     direction 0.0495018 0.988526 -0.142706   
     length 1.77897   
     axis 0 0 0   XYZ
    dof rx ry rz
    limits (-20.0 45.0)
           (-30.0 30.0)
           (-30.0 30.0)
  end
  begin
     id 16
     name head
     direction 0.0142736 0.998114 -0.0597101  
     length 1.78934  
     axis 0 0 0   XYZ
    dof rx ry rz
    limits (-20.0 45.0)
           (-30.0 30.0)
           (-30.0 30.0)
  end
  begin
     id 17 
     name lclavicle
     direction 0.918111 0.396107 -0.0130883  
     length 3.37276  
     axis 0 0 0   XYZ
    dof ry rz
    limits (-20.0 10.0)
           (0.0 20.0)
  end
  begin
     id 18 
     name lhumerus
     direction 1 -4.48975e-011 -3.26108e-027   
     length 5.34298   
     axis 180 -30 -90   XYZ
    dof rx ry rz
    limits (-60.0 90.0)
           (-90.0 90.0)
           (-90.0 90.0)
  end
  begin
     id 19
     name lradius
     direction 1 -4.48964e-011 -8.84413e-028   
     length 3.67262   
     axis 180 -30 -90   XYZ
    dof rx
    limits (-10.0 170.0)
  end
  begin
     id 20
     name lwrist
     direction 1 -4.48991e-011 -1.24264e-027   
     length 1.83631   
     axis -2.17013e-015 90 90   XYZ
    dof ry
    limits (-180.0 0.0)
 end
  begin
     id 21 
     name lhand
     direction 1 -4.48855e-011 -2.48528e-027   
     length 0.599298   
     axis 1.58582e-015 90 90   XYZ
    dof rx rz
    limits (-90.0 90.0)
           (-45.0 45.0)
  end
  begin
     id 22 
     name lfingers
     direction 1 -4.48811e-011 -4.97056e-027   
     length 0.48317   
     axis 3.17164e-015 90 90   XYZ
    dof rx
    limits (0.0 90.0)
  end
  begin
     id 23
     name lthumb
     direction 0.707107 -6.34882e-011 0.707107   
     length 0.693738   
     axis -90 45 2.85299e-015   XYZ
    dof rx rz
    limits (-45.0 45.0)
           (-45.0 45.0)
  end
  begin
     id 24 
     name rclavicle
     direction -0.920511 0.384752 -0.0680135   
     length 3.43787  
     axis 0 0 0   XYZ 
    dof ry rz
    limits (-10.0 20.0)
           (-20.0 0.0)
  end
  begin
     id 25 
     name rhumerus
     direction -0.999976 -0.00330524 0.00603274  
     length 5.5498   
     axis 180 30 90   XYZ
    dof rx ry rz
    limits (-90.0 60.0)
           (-90.0 90.0)
           (-90.0 90.0)
  end
  begin
     id 26 
     name rradius
     direction -1 -4.48967e-011 8.62438e-027   
     length 3.69401   
     axis 180 30 90   XYZ
    dof rx
    limits (-10.0 170.0)
  end
  begin
     id 27 
     name rwrist
     direction -1 -4.4897e-011 9.54866e-027   
     length 1.84701   
     axis -7.69462e-015 -90 -90   XYZ
    dof ry
    limits (-180.0 0.0)
  end
  begin
     id 28
     name rhand
     direction -1 -4.48982e-011 1.90973e-026   
     length 0.638113   
     axis -1.21857e-014 -90 -90   XYZ
    dof rx rz
    limits (-90.0 90.0)
           (-45.0 45.0)
  end
  begin
     id 29
     name rfingers
     direction -1 -4.48936e-011 3.81946e-026   
     length 0.514463   
     axis -2.43714e-014 -90 -90   XYZ
    dof rx
    limits (0.0 90.0)
  end
  begin
     id 30
     name rthumb
     direction -0.707107 -6.34942e-011 0.707107   
     length 0.738669   
     axis -90 -45 -2.85299e-015   XYZ
    dof rx rz
    limits (-45.0 45.0)
           (-45.0 45.0)
  end
:hierarchy
  begin
    root lhipjoint rhipjoint lowerback
    lhipjoint lfemur
    lfemur ltibia
    ltibia lfoot
    lfoot ltoes
    rhipjoint rfemur
    rfemur rtibia
    rtibia rfoot
    rfoot rtoes
    lowerback upperback
    upperback thorax
    thorax lowerneck lclavicle rclavicle
    lowerneck upperneck
    upperneck head
    lclavicle lhumerus
    lhumerus lradius
    lradius lwrist
    lwrist lhand lthumb
    lhand lfingers
    rclavicle rhumerus
    rhumerus rradius
    rradius rwrist
    rwrist rhand rthumb
    rhand rfingers
  end

#!OML:ASF F:\twosubjects\two\Thursday\Session 1\Rory.ASF
:FULLY-SPECIFIED
:DEGREES
81
root -1.06711 18.0712 -3.68998 -2.16624 1.26704 -2.63361
lowerback 6.55809 0.873537 -2.61175
upperback 3.68241 1.02091 0.346683
thorax 0.0684868 0.471196 1.75653
lowerneck -0.396365 14.7157 10.2166
upperneck 22.3264 22.6047 -12.4642
head 9.76304 10.5605 -3.5645
rclavicle 7.95139e-015 -9.54166e-015
rhumerus -31.2177 -16.1351 -75.2844
rradius 27.623
rwrist 26.3315
rhand -17.1247 23.8287
rfingers 7.12502
rthumb 9.11498 -5.95433
lclavicle 7.95139e-015 -9.54166e-015
lhumerus -17.8329 10.1402 85.1677
lradius 35.5137
lwrist -13.0672
lhand -12.6443 35.2409
lfingers 7.12502
lthumb 13.4361 64.7876
rfemur -11.0372 5.93795 14.7011
rtibia 25.7497
rfoot -11.71 -8.9268
rtoes -12.943
lfemur -15.5318 -7.56148 -12.6667
ltibia 53.9488
lfoot -12.0272 6.62266
ltoes -3.62141
82
root -1.11813 18.0842 -3.57885 -1.99403 1.62161 -2.79213
lowerback 6.45165 0.938811 -2.41449
upperback 3.52789 1.12051 0.423232
thorax -0.0351898 0.526018 1.71819
lowerneck -0.811642 14.6877 10.3222
upperneck 22.6557 22.536 -12.2257
head 9.92977 10.5234 -3.47014
rclavicle -2.5345e-015 -4.77083e-015
rhumerus -31.595 -16.4741 -74.9555
rradius 27.5654
rwrist 26.0999
rhand -17.732 23.5897
rfingers 7.12502
rthumb 8.52894 -6.21807
lclavicle -2.5345e-015 -4.77083e-015
lhumerus -18.2724 9.88051 85.5556
lradius 36.0089
lwrist -12.5597
lhand -12.8102 35.1116
lfingers 7.12502
lthumb 13.2761 64.6688
rfemur -10.5072 5.53699 15.0718
rtibia 25.2638
rfoot -11.8695 -8.87651
rtoes -12.6922
lfemur -16.4037 -7.13764 -12.6652
ltibia 55.14
lfoot -12.2951 6.05385
ltoes -4.18994
83
root -1.16623 18.107 -3.46084 -1.8457 1.82318 -3.08755
lowerback 6.33318 1.07544 -2.07285
upperback 3.36128 1.32304 0.519875
thorax -0.146311 0.633662 1.61283
lowerneck -1.05181 14.6534 10.3719
upperneck 22.9167 22.4425 -11.9246
head 10.022 10.489 -3.36773
rclavicle -6.85807e-015 -8.74653e-015
rhumerus -32.0983 -16.9052 -74.5912
rradius 27.5683
rwrist 26.0007
rhand -18.3599 23.5933
rfingers 7.12502
rthumb 7.92297 -6.23825
lclavicle -6.85807e-015 -8.74653e-015
lhumerus -18.7909 9.66336 85.9301
lradius 36.5045
lwrist -12.1117
lhand -12.4051 35.3406
lfingers 7.12502
lthumb 13.6666 64.8719
rfemur -9.98543 5.43625 15.6004
rtibia 24.8189
rfoot -12.1157 -8.99642
rtoes -12.3958
lfemur -17.2153 -6.45561 -12.5277
ltibia 56.2796
lfoot -12.233 5.54441
ltoes -2.10608
84
root -1.20947 18.1298 -3.34587 -1.76707 1.99853 -3.52708
lowerback 6.13248 1.19047 -1.36434
upperback 3.32557 1.51741 0.530665
thorax -0.0636764 0.738844 1.21763
lowerneck -0.779119 14.6104 10.302
upperneck 22.4765 22.2566 -11.6263
head 9.74005 10.4545 -3.3182
rclavicle -1.49089e-016 -7.55382e-015
rhumerus -32.4854 -17.7337 -74.3064
rradius 27.5436
rwrist 26.111
rhand -18.2375 23.3063
rfingers 7.12502
rthumb 8.04114 -6.5207
lclavicle -1.49089e-016 -7.55382e-015
lhumerus -19.03 9.3384 86.137
lradius 36.8079
lwrist -11.7953
lhand -11.2627 36.8868
lfingers 7.12502
lthumb 14.7674 66.3407
rfemur -9.39218 5.23825 16.2867
rtibia 24.336
rfoot -12.3319 -9.03329
rtoes -12.0067
lfemur -18.0247 -5.71193 -12.2821
ltibia 57.2766
lfoot -12.0709 5.27307
ltoes -2.55348
85
root -1.25472 18.1411 -3.23658 -1.64032 2.34547 -3.79512
lowerback 5.95813 1.2292 -0.877897
upperback 3.26165 1.5959 0.526273
thorax -0.0225405 0.784172 0.938646
lowerneck -0.223703 14.5561 10.2491
upperneck 21.6552 22.0858 -11.6096
head 9.31578 10.432 -3.39057
rclavicle -3.1408e-014 1.19271e-015
rhumerus -32.7522 -18.288 -74.0811
rradius 27.5518
rwrist 25.8936
rhand -17.8616 22.9179
rfingers 7.12502
rthumb 8.40391 -6.89495
lclavicle -3.1408e-014 1.19271e-015
lhumerus -19.246 9.00234 86.3434
lradius 37.0373
lwrist -11.4797
lhand -11.0165 36.9366
lfingers 7.12502
lthumb 15.0046 66.373
rfemur -8.82111 4.75899 16.7834
rtibia 23.8765
rfoot -12.5439 -9.06582
rtoes -13.0463
lfemur -18.9193 -5.16487 -12.2564
ltibia 58.1229
lfoot -12.6263 4.44922
ltoes -5.09511
86
root -1.30048 18.1558 -3.12473 -1.41529 2.68076 -3.74514
lowerback 5.81713 1.33415 -0.826299
upperback 3.09545 1.73897 0.485985
thorax -0.115826 0.857776 0.860765
lowerneck 0.122404 14.4693 10.31
upperneck 21.0186 21.9246 -11.7544
head 9.03444 10.392 -3.50714
rclavicle -2.6985e-014 -9.93923e-015
rhumerus -33.1094 -18.6698 -73.8267
rradius 27.4912
rwrist 25.6613
rhand -18.4238 23.0314
rfingers 7.12502
rthumb 7.86134 -6.80245
lclavicle -2.6985e-014 -9.93923e-015
lhumerus -19.7801 8.47393 86.6668
lradius 37.4891
lwrist -10.9379
lhand -12.5456 32.9804
lfingers 7.12502
lthumb 13.5312 62.5208
rfemur -8.37672 4.45029 16.922
rtibia 23.5352
rfoot -12.8346 -9.20706
rtoes -13.8588
lfemur -19.7551 -4.64079 -12.5799
ltibia 58.8032
lfoot -13.1943 3.51102
ltoes -4.43085
87
root -1.3429 18.1724 -3.00917 -1.16118 2.93499 -3.40434
lowerback 5.59765 1.46338 -1.10801
upperback 2.96386 1.89811 0.350657
thorax -0.136934 0.935966 0.873958
lowerneck 0.0354829 14.4535 10.3613
upperneck 20.7647 21.8472 -11.6929
head 8.94968 10.3698 -3.50099
rclavicle -2.7482e-014 -3.97569e-015
rhumerus -33.3869 -18.9676 -73.703
rradius 27.3784
rwrist 25.2867
rhand -19.0285 23.2068
rfingers 7.12502
rthumb 7.27769 -6.64803
lclavicle -2.7482e-014 -3.97569e-015
lhumerus -20.3669 7.84556 86.9332
lradius 38.0073
lwrist -10.1601
lhand -11.7394 34.9818
lfingers 7.12502
lthumb 14.3081 64.4688
rfemur -8.01775 4.1632 16.7206
rtibia 23.2792
rfoot -13.0414 -9.26686
rtoes -13.7295
lfemur -20.5265 -3.98069 -13.2579
ltibia 59.3332
lfoot -13.3891 3.03062
ltoes -2.35264
88
root -1.38409 18.1824 -2.89501 -0.937481 3.22266 -3.17132
lowerback 5.41645 1.46735 -1.32842
upperback 2.88532 1.89443 0.246478
thorax -0.120293 0.932864 0.894293
lowerneck -0.102101 14.5654 10.4943
upperneck 20.5577 21.9592 -11.684
head 8.93124 10.4321 -3.48957
rclavicle -1.69961e-014 1.43125e-014
rhumerus -33.4862 -18.8191 -73.8894
rradius 27.4483
rwrist 24.586
rhand -19.1592 23.0113
rfingers 7.12502
rthumb 7.15146 -6.84788
lclavicle -1.69961e-014 1.43125e-014
lhumerus -20.8009 7.72162 87.0118
lradius 38.3605
lwrist -9.84827
lhand -12.0376 34.4379
lfingers 7.12502
lthumb 14.0207 63.9451
rfemur -7.64888 3.84859 16.6383
rtibia 23.0431
rfoot -13.2746 -9.39875
rtoes -14.105
lfemur -21.3367 -3.27904 -13.9008
ltibia 59.7801
lfoot -13.6327 2.88035
ltoes -3.59285
89
root -1.42382 18.1921 -2.77839 -0.712418 3.42311 -3.38486
lowerback 5.1369 1.54506 -1.01424
upperback 2.86914 2.01567 0.249484
thorax 0.0257024 0.996058 0.722646
lowerneck 8.78881e-005 14.6282 10.7923
upperneck 20.0063 22.0292 -11.9872
head 8.80405 10.4864 -3.63062
rclavicle -5.43179e-014 -2.38542e-015
rhumerus -33.7354 -18.6261 -74.0774
rradius 27.9218
rwrist 23.9704
rhand -19.2355 22.9722
rfingers 7.12502
rthumb 7.07784 -6.88946
lclavicle -5.43179e-014 -2.38542e-015
lhumerus -21.152 7.41411 87.1618
lradius 38.7301
lwrist -9.84553
lhand -11.7878 34.2096
lfingers 7.12502
lthumb 14.2615 63.6999
rfemur -7.41965 3.74703 17.0532
rtibia 23.0201
rfoot -13.6318 -9.60606
rtoes -14.8774
lfemur -22.2221 -2.43058 -14.0415
ltibia 60.1635
lfoot -14.0923 2.61375
ltoes -7.31864
90
root -1.46676 18.1964 -2.66545 -0.477833 3.60795 -3.74827
lowerback 4.87564 1.70217 -0.57809
upperback 2.80921 2.24552 0.303004
thorax 0.119069 1.11524 0.529106
lowerneck -0.308739 14.6156 10.7605
upperneck 19.9038 21.952 -11.8604
head 8.79367 10.4465 -3.57216
rclavicle 1.0635e-014 3.18055e-015
rhumerus -34.1934 -18.4522 -74.1628
rradius 28.5444
rwrist 23.1729
rhand -19.2725 23.0182
rfingers 7.12502
rthumb 7.04208 -6.84461
lclavicle 1.0635e-014 3.18055e-015
lhumerus -21.4704 6.68862 87.4517
lradius 38.9909
lwrist -9.97015
lhand -11.4459 34.8756
lfingers 7.12502
lthumb 14.5909 64.3424
rfemur -7.2089 3.69587 17.6564
rtibia 22.9076
rfoot -13.8561 -9.84691
rtoes -15.6123
lfemur -23.1284 -1.62595 -13.9279
ltibia 60.3584
lfoot -14.4995 1.97107
ltoes -8.18735
91
root -1.50853 18.1772 -2.55885 -0.263728 3.82038 -3.62412
lowerback 4.83088 1.81536 -0.691848
upperback 2.69724 2.39139 0.243616
thorax 0.0249631 1.18793 0.524041
lowerneck -1.10374 14.6235 10.326
upperneck 20.2946 21.8545 -11.2407
head 8.92983 10.3672 -3.2595
rclavicle -9.93923e-016 1.98785e-015
rhumerus -34.4802 -18.3061 -74.242
rradius 28.8111
rwrist 22.37
rhand -19.338 23.0837
rfingers 7.12502
rthumb 6.97889 -6.78124
lclavicle -9.93923e-016 1.98785e-015
lhumerus -21.7804 6.34279 87.6783
lradius 39.1281
lwrist -10.475
lhand -11.5758 34.9856
lfingers 7.12502
lthumb 14.4658 64.4614
rfemur -6.98781 3.34555 17.6858
rtibia 22.7949
rfoot -14.0765 -9.83739
rtoes -15.8758
lfemur -23.9672 -1.03379 -14.3743
ltibia 60.4248
lfoot -14.6336 1.48693
ltoes -5.54609
92
root -1.54617 18.2034 -2.44743 -0.0721029 3.93775 -3.28203
lowerback 4.8859 1.89741 -1.05043
upperback 2.6018 2.48412 0.122909
thorax -0.11456 1.23238 0.592141
lowerneck -1.29749 14.7252 10.2325
upperneck 20.0092 21.9364 -11.1716
head 8.85606 10.4046 -3.20178
rclavicle 9.98893e-015 2.18663e-014
rhumerus -34.5851 -17.7722 -74.5201
rradius 29.0412
rwrist 21.5868
rhand -19.3793 22.9428
rfingers 7.12502
rthumb 6.93897 -6.92348
lclavicle 9.98893e-015 2.18663e-014
lhumerus -22.0422 6.1304 87.7682
lradius 39.0784
lwrist -10.7727
lhand -11.8838 33.6586
lfingers 7.12502
lthumb 14.169 63.1554
rfemur -6.69573 2.89615 17.4562
rtibia 22.6796
rfoot -14.3844 -9.60983
rtoes -15.3663
lfemur -24.5525 -0.351378 -15.1195
ltibia 60.1618
lfoot -14.6 1.51336
ltoes -4.8767
93
root -1.59013 18.2127 -2.33663 0.0182444 4.10359 -3.32671
lowerback 4.93015 1.9448 -1.09693
upperback 2.57966 2.54439 0.0983603
thorax -0.163867 1.26254 0.587794
lowerneck -0.9002 14.8375 10.5323
upperneck 19.0534 22.0712 -11.6483
head 8.56855 10.5022 -3.42095
rclavicle -6.16232e-015 7.95139e-016
rhumerus -34.6532 -17.069 -74.9747
rradius 29.4237
rwrist 20.7559
rhand -19.5298 22.6798
rfingers 7.12502
rthumb 6.79369 -7.19118
lclavicle -6.16232e-015 7.95139e-016
lhumerus -22.1084 5.70191 87.8319
lradius 38.7215
lwrist -10.7259
lhand -13.0994 31.7539
lfingers 7.12502
lthumb 12.9974 61.329
rfemur -6.32338 2.98199 17.7349
rtibia 22.619
rfoot -14.802 -9.91492
rtoes -14.7722
lfemur -25.1471 0.284314 -15.3585
ltibia 59.858
lfoot -14.685 1.63415
ltoes -5.48137
94
root -1.63075 18.2181 -2.22686 0.145265 4.41861 -3.24206
lowerback 4.8393 2.0458 -1.15923
upperback 2.62711 2.6773 -0.00903697
thorax -0.0646926 1.32845 0.510468
lowerneck -0.687944 14.7898 10.6112
upperneck 18.1219 21.9297 -11.8876
head 8.23599 10.4643 -3.56121
rclavicle 2.83268e-014 -5.1684e-015
rhumerus -34.6375 -17.0009 -75.2618
rradius 29.6506
rwrist 20.0876
rhand -19.6138 22.847
rfingers 7.12502
rthumb 6.71268 -7.02661
lclavicle 2.83268e-014 -5.1684e-015
lhumerus -22.0951 5.39573 87.9676
lradius 38.6322
lwrist -11.0718
lhand -14.0511 31.242
lfingers 7.12502
lthumb 12.0798 60.8733
rfemur -5.86637 2.98627 17.863
rtibia 22.3698
rfoot -15.091 -10.2991
rtoes -14.5451
lfemur -25.728 0.63864 -15.7176
ltibia 59.4203
lfoot -14.8932 1.49214
ltoes -4.16127
